<mxfile host="app.diagrams.net" agent="Mozilla/5.0 (Windows NT 10.0; Win64; x64) AppleWebKit/537.36 (KHTML, like Gecko) Chrome/127.0.0.0 Safari/537.36 Edg/127.0.0.0" version="24.7.6">
  <diagram name="第 1 页" id="kwlmULJ9phesYLVNktoo">
    <mxGraphModel dx="1426" dy="2391" grid="1" gridSize="10" guides="1" tooltips="1" connect="1" arrows="1" fold="1" page="1" pageScale="1" pageWidth="1200" pageHeight="1600" math="0" shadow="0">
      <root>
        <mxCell id="0" />
        <mxCell id="1" parent="0" />
        <mxCell id="3SeGYso6IprR8EsJTdrO-3" style="edgeStyle=orthogonalEdgeStyle;rounded=0;orthogonalLoop=1;jettySize=auto;html=1;exitX=0.5;exitY=1;exitDx=0;exitDy=0;entryX=0.5;entryY=0;entryDx=0;entryDy=0;" edge="1" parent="1" source="aPcUHA9ml7HtjI_VVoBi-1" target="3SeGYso6IprR8EsJTdrO-1">
          <mxGeometry relative="1" as="geometry" />
        </mxCell>
        <mxCell id="aPcUHA9ml7HtjI_VVoBi-1" value="选择默认资源" style="rounded=0;whiteSpace=wrap;html=1;" parent="1" vertex="1">
          <mxGeometry x="520" y="250" width="120" height="60" as="geometry" />
        </mxCell>
        <mxCell id="3SeGYso6IprR8EsJTdrO-4" style="edgeStyle=orthogonalEdgeStyle;rounded=0;orthogonalLoop=1;jettySize=auto;html=1;exitX=0.5;exitY=1;exitDx=0;exitDy=0;entryX=0.5;entryY=0;entryDx=0;entryDy=0;" edge="1" parent="1" source="3SeGYso6IprR8EsJTdrO-1" target="3SeGYso6IprR8EsJTdrO-2">
          <mxGeometry relative="1" as="geometry" />
        </mxCell>
        <mxCell id="3SeGYso6IprR8EsJTdrO-1" value="获取默认资源模型" style="rounded=0;whiteSpace=wrap;html=1;" vertex="1" parent="1">
          <mxGeometry x="520" y="370" width="120" height="60" as="geometry" />
        </mxCell>
        <mxCell id="3SeGYso6IprR8EsJTdrO-6" style="edgeStyle=orthogonalEdgeStyle;rounded=0;orthogonalLoop=1;jettySize=auto;html=1;exitX=0;exitY=0.5;exitDx=0;exitDy=0;entryX=0;entryY=0.5;entryDx=0;entryDy=0;" edge="1" parent="1" source="3SeGYso6IprR8EsJTdrO-2" target="aPcUHA9ml7HtjI_VVoBi-1">
          <mxGeometry relative="1" as="geometry">
            <Array as="points">
              <mxPoint x="390" y="530" />
              <mxPoint x="390" y="280" />
            </Array>
          </mxGeometry>
        </mxCell>
        <mxCell id="3SeGYso6IprR8EsJTdrO-8" value="无权限" style="edgeLabel;html=1;align=center;verticalAlign=middle;resizable=0;points=[];" vertex="1" connectable="0" parent="3SeGYso6IprR8EsJTdrO-6">
          <mxGeometry x="0.0431" y="2" relative="1" as="geometry">
            <mxPoint as="offset" />
          </mxGeometry>
        </mxCell>
        <mxCell id="3SeGYso6IprR8EsJTdrO-7" style="edgeStyle=orthogonalEdgeStyle;rounded=0;orthogonalLoop=1;jettySize=auto;html=1;exitX=0.5;exitY=1;exitDx=0;exitDy=0;entryX=0.5;entryY=0;entryDx=0;entryDy=0;" edge="1" parent="1" source="3SeGYso6IprR8EsJTdrO-2" target="3SeGYso6IprR8EsJTdrO-5">
          <mxGeometry relative="1" as="geometry" />
        </mxCell>
        <mxCell id="3SeGYso6IprR8EsJTdrO-9" value="有权限" style="edgeLabel;html=1;align=center;verticalAlign=middle;resizable=0;points=[];" vertex="1" connectable="0" parent="3SeGYso6IprR8EsJTdrO-7">
          <mxGeometry x="-0.2667" y="-1" relative="1" as="geometry">
            <mxPoint as="offset" />
          </mxGeometry>
        </mxCell>
        <mxCell id="3SeGYso6IprR8EsJTdrO-30" style="edgeStyle=orthogonalEdgeStyle;rounded=0;orthogonalLoop=1;jettySize=auto;html=1;exitX=1;exitY=0.5;exitDx=0;exitDy=0;entryX=0;entryY=0.5;entryDx=0;entryDy=0;" edge="1" parent="1" source="3SeGYso6IprR8EsJTdrO-2" target="3SeGYso6IprR8EsJTdrO-29">
          <mxGeometry relative="1" as="geometry" />
        </mxCell>
        <mxCell id="3SeGYso6IprR8EsJTdrO-32" value="有权限" style="edgeLabel;html=1;align=center;verticalAlign=middle;resizable=0;points=[];" vertex="1" connectable="0" parent="3SeGYso6IprR8EsJTdrO-30">
          <mxGeometry x="0.0286" y="1" relative="1" as="geometry">
            <mxPoint as="offset" />
          </mxGeometry>
        </mxCell>
        <mxCell id="3SeGYso6IprR8EsJTdrO-2" value="ABAC&lt;div&gt;权限管理器&lt;/div&gt;" style="rhombus;whiteSpace=wrap;html=1;" vertex="1" parent="1">
          <mxGeometry x="520" y="490" width="120" height="80" as="geometry" />
        </mxCell>
        <mxCell id="3SeGYso6IprR8EsJTdrO-11" style="edgeStyle=orthogonalEdgeStyle;rounded=0;orthogonalLoop=1;jettySize=auto;html=1;exitX=0.5;exitY=1;exitDx=0;exitDy=0;entryX=0.5;entryY=0;entryDx=0;entryDy=0;" edge="1" parent="1" source="3SeGYso6IprR8EsJTdrO-5" target="3SeGYso6IprR8EsJTdrO-10">
          <mxGeometry relative="1" as="geometry" />
        </mxCell>
        <mxCell id="3SeGYso6IprR8EsJTdrO-27" style="edgeStyle=orthogonalEdgeStyle;rounded=0;orthogonalLoop=1;jettySize=auto;html=1;exitX=1;exitY=0.5;exitDx=0;exitDy=0;entryX=0;entryY=0.5;entryDx=0;entryDy=0;" edge="1" parent="1" source="3SeGYso6IprR8EsJTdrO-5" target="3SeGYso6IprR8EsJTdrO-20">
          <mxGeometry relative="1" as="geometry" />
        </mxCell>
        <mxCell id="3SeGYso6IprR8EsJTdrO-28" value="编辑资源" style="edgeLabel;html=1;align=center;verticalAlign=middle;resizable=0;points=[];" vertex="1" connectable="0" parent="3SeGYso6IprR8EsJTdrO-27">
          <mxGeometry x="0.0143" y="-2" relative="1" as="geometry">
            <mxPoint as="offset" />
          </mxGeometry>
        </mxCell>
        <mxCell id="3SeGYso6IprR8EsJTdrO-5" value="获取资源" style="rounded=0;whiteSpace=wrap;html=1;" vertex="1" parent="1">
          <mxGeometry x="520" y="630" width="120" height="60" as="geometry" />
        </mxCell>
        <mxCell id="3SeGYso6IprR8EsJTdrO-10" value="基于资源模型&lt;div&gt;展示资源&lt;/div&gt;" style="rounded=0;whiteSpace=wrap;html=1;" vertex="1" parent="1">
          <mxGeometry x="520" y="750" width="120" height="60" as="geometry" />
        </mxCell>
        <mxCell id="3SeGYso6IprR8EsJTdrO-14" style="edgeStyle=orthogonalEdgeStyle;rounded=0;orthogonalLoop=1;jettySize=auto;html=1;exitX=0.5;exitY=1;exitDx=0;exitDy=0;entryX=0.5;entryY=0;entryDx=0;entryDy=0;" edge="1" parent="1" source="3SeGYso6IprR8EsJTdrO-12" target="3SeGYso6IprR8EsJTdrO-13">
          <mxGeometry relative="1" as="geometry" />
        </mxCell>
        <mxCell id="3SeGYso6IprR8EsJTdrO-12" value="CMDB主页" style="rounded=0;whiteSpace=wrap;html=1;" vertex="1" parent="1">
          <mxGeometry x="520" y="-10" width="120" height="60" as="geometry" />
        </mxCell>
        <mxCell id="3SeGYso6IprR8EsJTdrO-15" style="edgeStyle=orthogonalEdgeStyle;rounded=0;orthogonalLoop=1;jettySize=auto;html=1;exitX=0.5;exitY=1;exitDx=0;exitDy=0;entryX=0.5;entryY=0;entryDx=0;entryDy=0;" edge="1" parent="1" source="3SeGYso6IprR8EsJTdrO-13" target="aPcUHA9ml7HtjI_VVoBi-1">
          <mxGeometry relative="1" as="geometry" />
        </mxCell>
        <mxCell id="3SeGYso6IprR8EsJTdrO-16" value="有权限" style="edgeLabel;html=1;align=center;verticalAlign=middle;resizable=0;points=[];" vertex="1" connectable="0" parent="3SeGYso6IprR8EsJTdrO-15">
          <mxGeometry y="-1" relative="1" as="geometry">
            <mxPoint as="offset" />
          </mxGeometry>
        </mxCell>
        <mxCell id="3SeGYso6IprR8EsJTdrO-17" style="edgeStyle=orthogonalEdgeStyle;rounded=0;orthogonalLoop=1;jettySize=auto;html=1;exitX=0;exitY=0.5;exitDx=0;exitDy=0;entryX=0;entryY=0.5;entryDx=0;entryDy=0;" edge="1" parent="1" source="3SeGYso6IprR8EsJTdrO-13" target="3SeGYso6IprR8EsJTdrO-12">
          <mxGeometry relative="1" as="geometry">
            <Array as="points">
              <mxPoint x="390" y="150" />
              <mxPoint x="390" y="20" />
            </Array>
          </mxGeometry>
        </mxCell>
        <mxCell id="3SeGYso6IprR8EsJTdrO-18" value="无权限" style="edgeLabel;html=1;align=center;verticalAlign=middle;resizable=0;points=[];" vertex="1" connectable="0" parent="3SeGYso6IprR8EsJTdrO-17">
          <mxGeometry x="0.0308" y="1" relative="1" as="geometry">
            <mxPoint as="offset" />
          </mxGeometry>
        </mxCell>
        <mxCell id="3SeGYso6IprR8EsJTdrO-13" value="RBAC&lt;div&gt;权限管理器&lt;/div&gt;" style="rhombus;whiteSpace=wrap;html=1;" vertex="1" parent="1">
          <mxGeometry x="520" y="110" width="120" height="80" as="geometry" />
        </mxCell>
        <mxCell id="3SeGYso6IprR8EsJTdrO-24" style="edgeStyle=orthogonalEdgeStyle;rounded=0;orthogonalLoop=1;jettySize=auto;html=1;exitX=0.5;exitY=1;exitDx=0;exitDy=0;entryX=0.5;entryY=0;entryDx=0;entryDy=0;" edge="1" parent="1" source="3SeGYso6IprR8EsJTdrO-20" target="3SeGYso6IprR8EsJTdrO-23">
          <mxGeometry relative="1" as="geometry" />
        </mxCell>
        <mxCell id="3SeGYso6IprR8EsJTdrO-25" value="提交修改" style="edgeLabel;html=1;align=center;verticalAlign=middle;resizable=0;points=[];" vertex="1" connectable="0" parent="3SeGYso6IprR8EsJTdrO-24">
          <mxGeometry x="-0.1714" y="-2" relative="1" as="geometry">
            <mxPoint as="offset" />
          </mxGeometry>
        </mxCell>
        <mxCell id="3SeGYso6IprR8EsJTdrO-20" value="渲染&lt;span style=&quot;background-color: initial;&quot;&gt;资源编辑表单&lt;/span&gt;" style="rounded=0;whiteSpace=wrap;html=1;" vertex="1" parent="1">
          <mxGeometry x="780" y="630" width="120" height="60" as="geometry" />
        </mxCell>
        <mxCell id="3SeGYso6IprR8EsJTdrO-23" value="服务端" style="rounded=1;whiteSpace=wrap;html=1;" vertex="1" parent="1">
          <mxGeometry x="780" y="760" width="120" height="60" as="geometry" />
        </mxCell>
        <mxCell id="3SeGYso6IprR8EsJTdrO-33" style="edgeStyle=orthogonalEdgeStyle;rounded=0;orthogonalLoop=1;jettySize=auto;html=1;exitX=1;exitY=0.5;exitDx=0;exitDy=0;entryX=1;entryY=0.5;entryDx=0;entryDy=0;" edge="1" parent="1" source="3SeGYso6IprR8EsJTdrO-29" target="3SeGYso6IprR8EsJTdrO-23">
          <mxGeometry relative="1" as="geometry">
            <Array as="points">
              <mxPoint x="980" y="530" />
              <mxPoint x="980" y="790" />
            </Array>
          </mxGeometry>
        </mxCell>
        <mxCell id="3SeGYso6IprR8EsJTdrO-34" value="提交新增" style="edgeLabel;html=1;align=center;verticalAlign=middle;resizable=0;points=[];" vertex="1" connectable="0" parent="3SeGYso6IprR8EsJTdrO-33">
          <mxGeometry x="-0.0095" relative="1" as="geometry">
            <mxPoint as="offset" />
          </mxGeometry>
        </mxCell>
        <mxCell id="3SeGYso6IprR8EsJTdrO-29" value="渲染资源新增表单" style="rounded=0;whiteSpace=wrap;html=1;" vertex="1" parent="1">
          <mxGeometry x="780" y="500" width="120" height="60" as="geometry" />
        </mxCell>
      </root>
    </mxGraphModel>
  </diagram>
</mxfile>
